<?xml version="1.0" encoding="UTF-8"?>
<svg xmlns="http://www.w3.org/2000/svg" width="300" height="171">
<path d="M0 0 C99 0 198 0 300 0 C300 56.43 300 112.86 300 171 C201 171 102 171 0 171 C0 114.57 0 58.14 0 0 Z " fill="#AB7741" transform="translate(0,0)"/>
<path d="M0 0 C99 0 198 0 300 0 C300 56.43 300 112.86 300 171 C201 171 102 171 0 171 C0 114.57 0 58.14 0 0 Z M2 3 C2 57.45 2 111.9 2 168 C99.35 168 196.7 168 297 168 C297 113.55 297 59.1 297 3 C199.65 3 102.3 3 2 3 Z " fill="#F5F1EF" transform="translate(0,0)"/>
<path d="M0 0 C6.29828306 3.68754315 10.34489569 7.69746786 12.54760742 14.75439453 C13.53875981 19.6743188 13.26621829 24.78809204 13.29516602 29.78955078 C13.3066931 31.17637326 13.32715702 32.56315112 13.35668945 33.94970703 C13.39953194 35.96354319 13.41295791 37.9779365 13.42578125 39.9921875 C13.44036377 41.19214355 13.45494629 42.39209961 13.4699707 43.62841797 C12.90579765 47.67581009 11.53246649 49.83257536 9 53 C5.61143534 54.69428233 1.78489889 54.40262081 -1.95703125 54.62109375 C-4.98220295 54.99778394 -7.1971521 55.85625723 -10 57 C-14.95677021 57.67556615 -18.86859169 57.56570416 -23.375 55.3125 C-27.44441779 51.72753671 -30.65788279 48.5132806 -31.203125 42.9140625 C-31.30215829 38.077937 -31.21994483 34.8639338 -28 31 C-22.40375951 25.58057596 -16.19382477 23.57725759 -8.90429688 21.12695312 C-6.44621023 20.22765313 -4.21955616 19.38904262 -2 18 C-0.72521441 14.88475684 -0.72521441 14.88475684 -1 12 C-1.6496875 11.63648438 -2.299375 11.27296875 -2.96875 10.8984375 C-5.47935365 9.38742604 -7.78284929 7.91893745 -10 6 C-10.5625 2.625 -10.5625 2.625 -10 0 C-6.63938752 -1.68030624 -3.4637823 -1.05445073 0 0 Z " fill="#FBF9F8" transform="translate(270,46)"/>
<path d="M0 0 C2.80221542 0.9807754 3.76907713 1.48198221 5.5 3.875 C5.91650391 7.13720703 5.91650391 7.13720703 5.9765625 11.1328125 C5.99214203 11.83646942 6.00772156 12.54012634 6.02377319 13.2651062 C6.07126913 15.51005986 6.09905391 17.75470257 6.125 20 C6.16145767 22.25222064 6.20202429 24.50426368 6.24765015 26.75631714 C6.28734454 28.79459636 6.3150854 30.83309779 6.34228516 32.87158203 C6.15791624 35.75593408 6.15791624 35.75593408 7.5 36.875 C9.81102248 37.37273972 9.81102248 37.37273972 12.5 36.875 C15.46261404 34.49887142 18.01483052 31.85928947 20.68359375 29.16015625 C23.76146774 26.66285211 25.59939079 26.14499799 29.5 25.875 C30.24609375 28.0078125 30.24609375 28.0078125 30.5 30.875 C28.66916411 34.05191145 26.50438422 36.82635796 24.28515625 39.7421875 C22.12876623 43.52648683 21.93339258 45.5794378 22.5 49.875 C23.82382179 52.80587245 23.82382179 52.80587245 25.75 55.4375 C26.70132812 56.85095703 26.70132812 56.85095703 27.671875 58.29296875 C28.72900085 59.78604608 29.79641563 61.27216364 30.890625 62.73828125 C32.69410237 65.19583668 33.5 66.52552617 33.5 69.625 C32.26992864 72.39266055 31.18941238 72.68211548 28.5 73.875 C23.54300149 69.75489734 19.20242252 65.57191033 15.23828125 60.4765625 C13.02963932 58.44163398 11.47413633 58.05758026 8.5 57.875 C6.15547166 60.21952834 5.8073746 61.77224948 4.9375 64.9375 C3.59722222 69.77777778 3.59722222 69.77777778 2.5 70.875 C-0.20173671 71.15939334 -1.85801894 71.31519784 -4.13980103 69.75061035 C-6.11196443 67.03114786 -5.88118931 64.95301105 -5.88818359 61.61523438 C-5.89764008 60.32379517 -5.90709656 59.03235596 -5.9168396 57.70178223 C-5.91146992 56.29076837 -5.90531697 54.8797573 -5.8984375 53.46875 C-5.90045835 52.02290703 -5.90336988 50.57706506 -5.90713501 49.13122559 C-5.91155789 46.10154513 -5.90512877 43.07213007 -5.89111328 40.04248047 C-5.87402105 36.15837224 -5.88386248 32.27488588 -5.90183067 28.39080048 C-5.9126697 25.40536816 -5.90922171 22.42008336 -5.9014473 19.43464661 C-5.8994456 18.00250678 -5.90190353 16.57035357 -5.90888596 15.13822937 C-5.91650144 13.13707738 -5.90283662 11.13587846 -5.88818359 9.13476562 C-5.88579681 7.99575806 -5.88341003 6.85675049 -5.88095093 5.68322754 C-5.5 2.875 -5.5 2.875 -4.13198853 0.97595215 C-2.5 -0.125 -2.5 -0.125 0 0 Z " fill="#FBF9F8" transform="translate(24.5,32.125)"/>
<path d="M0 0 C2.5 1.1875 2.5 1.1875 4.13574219 4.61962891 C5.85815626 9.57705278 5.89859579 14.25753757 5.828125 19.4609375 C5.82625183 20.42472321 5.82437866 21.38850891 5.82244873 22.38150024 C5.81575853 24.41029342 5.80190491 26.43907437 5.78125 28.46777344 C5.7501631 31.54634846 5.74027669 34.62440861 5.734375 37.703125 C5.72519983 39.68490197 5.71482243 41.66667381 5.703125 43.6484375 C5.69675018 45.00985367 5.69675018 45.00985367 5.69024658 46.39877319 C5.64181747 50.80617756 5.49539228 55.19971946 5.17480469 59.59619141 C5.11862976 60.38281158 5.06245483 61.16943176 5.00457764 61.97988892 C4.39858923 64.63118899 3.24711851 66.13451689 1.5 68.1875 C-3.25 67.4375 -3.25 67.4375 -5.5 65.1875 C-5.76069641 62.61341858 -5.76069641 62.61341858 -5.7746582 59.31665039 C-5.78895622 57.46947166 -5.78895622 57.46947166 -5.80354309 55.5849762 C-5.80328167 54.23503593 -5.80234464 52.88509564 -5.80078125 51.53515625 C-5.80466699 50.15514496 -5.80900141 48.77513487 -5.81376648 47.39512634 C-5.82123415 44.50076422 -5.82093364 41.60652406 -5.81567383 38.7121582 C-5.80988004 35.00179762 -5.82680469 31.29193637 -5.8500185 27.58165836 C-5.86474649 24.73092222 -5.86562883 21.88030656 -5.86250877 19.02953911 C-5.86302252 17.66158497 -5.86827027 16.29362418 -5.87832069 14.92570686 C-5.89064742 13.0130913 -5.881964 11.10037509 -5.87231445 9.18774414 C-5.87294388 8.09901505 -5.8735733 7.01028595 -5.8742218 5.88856506 C-5.5 3.1875 -5.5 3.1875 -4.13298035 1.32420349 C-2.5 0.1875 -2.5 0.1875 0 0 Z " fill="#FBFAF8" transform="translate(210.5,34.8125)"/>
<path d="M0 0 C2.5 1.3125 2.5 1.3125 4 3 C4 3.99 4 4.98 4 6 C3.05125 6.4125 2.1025 6.825 1.125 7.25 C-2.22398649 9.12543243 -2.77103905 9.53583438 -4 13 C-4.30226562 16.22805318 -4.30226562 16.22805318 -4.2734375 19.8125 C-4.29371983 21.14844598 -4.31457048 22.48438343 -4.3359375 23.8203125 C-4.35855397 25.91381063 -4.37501945 28.00697112 -4.38085938 30.10058594 C-4.3903924 32.13016794 -4.4241626 34.15825415 -4.4609375 36.1875 C-4.46915527 37.39792969 -4.47737305 38.60835937 -4.48583984 39.85546875 C-5.09293392 43.56837076 -6.00786385 44.78350125 -9 47 C-11.625 47.0625 -11.625 47.0625 -14 46 C-16.21819867 41.89135125 -16.33605759 37.85245657 -16.37109375 33.28515625 C-16.38012222 32.5517955 -16.3891507 31.81843475 -16.39845276 31.06285095 C-16.41290941 29.51728367 -16.42183056 27.97165583 -16.42553711 26.42602539 C-16.4374485 24.07267576 -16.48668349 21.72193883 -16.53710938 19.36914062 C-16.54657356 17.86199187 -16.55380862 16.35482713 -16.55859375 14.84765625 C-16.57812607 14.15060074 -16.59765839 13.45354523 -16.61778259 12.73536682 C-16.58294683 8.92885941 -15.98101349 6.50851735 -13.65258789 3.57202148 C-9.58955325 -0.3676076 -5.47467008 -0.62787967 0 0 Z " fill="#FBFAF9" transform="translate(133,50)"/>
<path d="M0 0 C2.5 0.5625 2.5 0.5625 4.13134766 2.7019043 C5.71444761 6.0107131 5.88715027 8.23881269 5.8984375 11.89453125 C5.90230469 13.10560547 5.90617188 14.31667969 5.91015625 15.56445312 C5.89855469 16.82193359 5.88695312 18.07941406 5.875 19.375 C5.88660156 20.62087891 5.89820313 21.86675781 5.91015625 23.15039062 C5.8883633 29.99700937 5.44584161 35.35129429 2.5 41.5625 C0.85 41.5625 -0.8 41.5625 -2.5 41.5625 C-5.15940252 36.96818627 -5.88402817 33.62416224 -5.8984375 28.3359375 C-5.90130768 27.66583649 -5.90417786 26.99573547 -5.90713501 26.30532837 C-5.90916437 24.89853055 -5.90371387 23.49170379 -5.89111328 22.08496094 C-5.87499031 19.93620814 -5.89102402 17.78932135 -5.91015625 15.640625 C-5.9081746 14.26822504 -5.90433255 12.89582623 -5.8984375 11.5234375 C-5.89505371 10.28384277 -5.89166992 9.04424805 -5.88818359 7.76708984 C-5.37079201 3.49584338 -4.35932542 0.98084822 0 0 Z " fill="#F8F5F3" transform="translate(167.5,53.4375)"/>
<path d="M0 0 C2.5625 0.375 2.5625 0.375 4.19775391 1.97924805 C6.00325219 5.14872115 5.95060291 7.44351635 5.9609375 11.08203125 C5.96480469 12.39107422 5.96867187 13.70011719 5.97265625 15.04882812 C5.96637207 15.72888916 5.96008789 16.4089502 5.95361328 17.10961914 C5.93762976 19.17076692 5.95343293 21.22993061 5.97265625 23.29101562 C5.9365583 35.54626966 5.9365583 35.54626966 2.5625 41.375 C0.1875 41.125 0.1875 41.125 -2.4375 40.375 C-5.04543384 36.82488069 -4.72695511 32.83636143 -4.703125 28.6171875 C-4.70503845 27.87292511 -4.7069519 27.12866272 -4.70892334 26.36184692 C-4.71028104 24.79347392 -4.7066136 23.22508953 -4.69824219 21.65673828 C-4.68750613 19.25137281 -4.69816664 16.84674903 -4.7109375 14.44140625 C-4.70961642 12.91666502 -4.70705511 11.39192424 -4.703125 9.8671875 C-4.70717346 9.14634979 -4.71122192 8.42551208 -4.71539307 7.68283081 C-4.64960138 0.71532329 -4.64960138 0.71532329 0 0 Z " fill="#FCFBFA" transform="translate(84.4375,54.625)"/>
<path d="M0 0 C3.125 2.0625 3.125 2.0625 5 5 C5.09853033 10.41916842 3.39436358 13.8513334 0 18 C-3.06152762 20.56506369 -4.47745115 21 -8.5 21 C-12.74541015 19.78702567 -14.42950213 18.58311824 -17 15 C-17.62171328 11.58057696 -17.80342802 9.33802841 -15.97265625 6.2890625 C-11.30894402 0.47714148 -7.20969318 -1.21001844 0 0 Z " fill="#AC7944" transform="translate(267,75)"/>
<path d="M0 0 C-0.33 0.99 -0.66 1.98 -1 3 C-1.78375 3.144375 -2.5675 3.28875 -3.375 3.4375 C-5.96421018 3.87798925 -5.96421018 3.87798925 -8 5 C-7.37351563 5.19335938 -6.74703125 5.38671875 -6.1015625 5.5859375 C-5.28429687 5.84632812 -4.46703125 6.10671875 -3.625 6.375 C-2.81289062 6.63023438 -2.00078125 6.88546875 -1.1640625 7.1484375 C1 8 1 8 3 10 C2.82250325 12.66245124 1.98963385 14.01451261 0.4375 16.1875 C-3.01743039 18.7565508 -5.7346622 18.71564415 -10 19 C-10.99 17.68 -11.98 16.36 -13 15 C-13.474375 15.66 -13.94875 16.32 -14.4375 17 C-17.70577926 19.5508521 -19.75711682 19.57197687 -23.80859375 19.3984375 C-27.03336452 18.81211554 -28.78695125 17.35136429 -31 15 C-31.33 14.34 -31.66 13.68 -32 13 C-32.8353125 14.4540625 -32.8353125 14.4540625 -33.6875 15.9375 C-36 19 -36 19 -38.6875 19.9375 C-39.450625 19.958125 -40.21375 19.97875 -41 20 C-42.5516502 18.4483498 -42.1694916 16.96270239 -42.1875 14.8125 C-42.12616631 9.9901386 -41.6333867 5.88467697 -38.375 2.125 C-37.694375 1.568125 -37.694375 1.568125 -37 1 C-36.01 1.33 -35.02 1.66 -34 2 C-32.8125 4.5625 -32.8125 4.5625 -32 7 C-31.278125 6.195625 -30.55625 5.39125 -29.8125 4.5625 C-26.97484311 1.97707928 -25.72833853 1.31957187 -22 1 C-21.28515625 2.734375 -21.28515625 2.734375 -21 5 C-22.43359375 7.140625 -22.43359375 7.140625 -24.4375 9.25 C-25.09621094 9.95640625 -25.75492188 10.6628125 -26.43359375 11.390625 C-26.95050781 11.92171875 -27.46742188 12.4528125 -28 13 C-25.78210671 15.48080466 -24.93306037 16.01947335 -21.5625 17 C-20.386875 17 -19.21125 17 -18 17 C-15.50789479 14.69931981 -15.50789479 14.69931981 -14 12 C-12.0625 12.3125 -12.0625 12.3125 -10 13 C-9.505 14.485 -9.505 14.485 -9 16 C-4.52116304 15.55296014 -4.52116304 15.55296014 -1 13 C-1 12.01 -1 11.02 -1 10 C-3.29629994 8.85185003 -5.07698086 8.69230191 -7.625 8.4375 C-8.44226563 8.35371094 -9.25953125 8.26992187 -10.1015625 8.18359375 C-10.72804687 8.12300781 -11.35453125 8.06242187 -12 8 C-10.62963573 5.14752501 -9.44627723 3.05487288 -7 1 C-4 0 -4 0 0 0 Z " fill="#EFE8E3" transform="translate(247,114)"/>
<path d="M0 0 C0.680625 0.2475 1.36125 0.495 2.0625 0.75 C3.3825 1.08 4.7025 1.41 6.0625 1.75 C5.7325 4.72 5.4025 7.69 5.0625 10.75 C7.7025 11.41 10.3425 12.07 13.0625 12.75 C12.7325 13.41 12.4025 14.07 12.0625 14.75 C4.3125 13.875 4.3125 13.875 2.0625 12.75 C1.340625 13.74 0.61875 14.73 -0.125 15.75 C-2.5470123 18.69793497 -2.5470123 18.69793497 -5.75 19.125 C-6.471875 19.00125 -7.19375 18.8775 -7.9375 18.75 C-9.54358952 15.53782097 -9.41766287 12.23442514 -8.9375 8.75 C-7.125 5.4375 -7.125 5.4375 -4.9375 2.75 C-4.4425 2.110625 -3.9475 1.47125 -3.4375 0.8125 C-1.9375 -0.25 -1.9375 -0.25 0 0 Z " fill="#F0E9E4" transform="translate(90.9375,119.25)"/>
<path d="M0 0 C3 1 3 1 3.984375 2.7421875 C4.23703125 3.44601563 4.4896875 4.14984375 4.75 4.875 C5.01296875 5.57367188 5.2759375 6.27234375 5.546875 6.9921875 C6.29302185 10.29838993 4.86218153 12.2461044 3.25 15.125 C1 18 1 18 -1.6875 18.9375 C-2.450625 18.958125 -3.21375 18.97875 -4 19 C-5.5516502 17.4483498 -5.1694916 15.96270239 -5.1875 13.8125 C-5.12616631 8.9901386 -4.6333867 4.88467697 -1.375 1.125 C-0.92125 0.75375 -0.4675 0.3825 0 0 Z " fill="#E4D7CE" transform="translate(210,115)"/>
<path d="M0 0 C0.625 2.3125 0.625 2.3125 1 5 C0.01 6.485 0.01 6.485 -1 8 C-1.66 7.67 -2.32 7.34 -3 7 C-2.34 5.02 -1.68 3.04 -1 1 C-7.97827911 3.9926612 -12.44391318 6.8852519 -17 13 C-15.91460937 13.08636719 -14.82921875 13.17273438 -13.7109375 13.26171875 C-12.2655136 13.40250679 -10.82020654 13.54449795 -9.375 13.6875 C-8.66214844 13.74099609 -7.94929687 13.79449219 -7.21484375 13.84960938 C-1.67620511 14.43396116 1.13875487 15.94629405 5 20 C5.5 23.4375 5.5 23.4375 4 27 C-0.64806923 31.2137566 -5.33445282 33.36602632 -11.625 33.375 C-13.08563467 33.28062053 -14.54588541 33.16706848 -16 33 C-15.67 31.68 -15.34 30.36 -15 29 C-15 29.99 -15 30.98 -15 32 C-5.52741879 30.38887676 -5.52741879 30.38887676 2 25 C2.41870553 22.33071879 2.41870553 22.33071879 2 20 C-2.56293948 17.40580544 -6.71320798 16.35768927 -11.875 15.8125 C-12.56335938 15.73064453 -13.25171875 15.64878906 -13.9609375 15.56445312 C-15.63947357 15.36629262 -17.31960481 15.18172213 -19 15 C-19.33 13.68 -19.66 12.36 -20 11 C-7.53192033 -0.66458121 -7.53192033 -0.66458121 0 0 Z " fill="#EDE6E0" transform="translate(181,102)"/>
<path d="M0 0 C0.66 0 1.32 0 2 0 C1.7834375 1.21816406 1.566875 2.43632813 1.34375 3.69140625 C1.06219311 5.31505098 0.78096031 6.93875193 0.5 8.5625 C0.35691406 9.36236328 0.21382812 10.16222656 0.06640625 10.98632812 C-0.74769395 15.73524598 -1.15519589 20.18246077 -1 25 C-0.38125 24.030625 0.2375 23.06125 0.875 22.0625 C3 19 3 19 5 18 C5.66 20.97 6.32 23.94 7 27 C7.99 26.01 8.98 25.02 10 24 C10.66 24.33 11.32 24.66 12 25 C10.68 26.65 9.36 28.3 8 30 C6.0625 29.3125 6.0625 29.3125 4 28 C3.37109375 25.41796875 3.37109375 25.41796875 3 23 C2.59007812 23.78246094 2.18015625 24.56492187 1.7578125 25.37109375 C1.21898437 26.38300781 0.68015625 27.39492187 0.125 28.4375 C-0.40867188 29.44683594 -0.94234375 30.45617187 -1.4921875 31.49609375 C-3 34 -3 34 -5 35 C-5.26090691 28.03967704 -4.26096626 21.53410135 -3.0625 14.6875 C-2.88009766 13.60404297 -2.69769531 12.52058594 -2.50976562 11.40429688 C-1.15055006 3.45165019 -1.15055006 3.45165019 0 0 Z " fill="#E2D4CA" transform="translate(192,100)"/>
<path d="M0 0 C0.99 0 1.98 0 3 0 C3.10957031 1.18335937 3.21914062 2.36671875 3.33203125 3.5859375 C4.15879948 11.9940815 4.99693275 20.03186155 8 28 C8.66 27.01 9.32 26.02 10 25 C10 26.65 10 28.3 10 30 C8.68 30 7.36 30 6 30 C3.55591476 22.6450086 1.52541447 15.7498635 1 8 C0.72285156 9.13179687 0.44570312 10.26359375 0.16015625 11.4296875 C-0.20560488 12.91148902 -0.57149711 14.39325818 -0.9375 15.875 C-1.11990234 16.62136719 -1.30230469 17.36773437 -1.49023438 18.13671875 C-2.88671875 23.7734375 -2.88671875 23.7734375 -4 26 C-4.66 25.67 -5.32 25.34 -6 25 C-5.85377197 24.45585449 -5.70754395 23.91170898 -5.55688477 23.35107422 C-4.88917767 20.85981959 -4.22580782 18.3674294 -3.5625 15.875 C-3.33240234 15.0190625 -3.10230469 14.163125 -2.86523438 13.28125 C-1.69469613 8.87052617 -0.64543654 4.52547458 0 0 Z " fill="#ECE4DE" transform="translate(65,112)"/>
<path d="M0 0 C1.03159626 3.09478879 0.97482862 4.52631393 0.5625 7.6875 C0.46066406 8.49574219 0.35882813 9.30398437 0.25390625 10.13671875 C0.17011719 10.75160156 0.08632812 11.36648437 0 12 C1.65 12 3.3 12 5 12 C4.67 12.66 4.34 13.32 4 14 C2.68 14.33 1.36 14.66 0 15 C-0.33 19.62 -0.66 24.24 -1 29 C0.65 28.01 2.3 27.02 4 26 C3.01 28.475 3.01 28.475 2 31 C0.35 31 -1.3 31 -3 31 C-3 26.05 -3 21.1 -3 16 C-5.64 16.99 -8.28 17.98 -11 19 C-10 16 -10 16 -8.125 14.8125 C-6 14 -6 14 -3 14 C-2.95101562 13.24074219 -2.90203125 12.48148438 -2.8515625 11.69921875 C-2.77679688 10.70535156 -2.70203125 9.71148437 -2.625 8.6875 C-2.55539063 7.70136719 -2.48578125 6.71523437 -2.4140625 5.69921875 C-2 3 -2 3 0 0 Z " fill="#EDE5E0" transform="translate(114,106)"/>
<path d="M0 0 C-0.33 0.99 -0.66 1.98 -1 3 C-1.78375 3.144375 -2.5675 3.28875 -3.375 3.4375 C-5.96421018 3.87798925 -5.96421018 3.87798925 -8 5 C-7.37351563 5.19335938 -6.74703125 5.38671875 -6.1015625 5.5859375 C-5.28429687 5.84632812 -4.46703125 6.10671875 -3.625 6.375 C-2.81289062 6.63023438 -2.00078125 6.88546875 -1.1640625 7.1484375 C1 8 1 8 3 10 C2.82250325 12.66245124 1.98963385 14.01451261 0.4375 16.1875 C-3.01743039 18.7565508 -5.7346622 18.71564415 -10 19 C-11.5625 16.625 -11.5625 16.625 -13 14 C-12.67 13.34 -12.34 12.68 -12 12 C-11.34 12.33 -10.68 12.66 -10 13 C-9.67 13.99 -9.34 14.98 -9 16 C-4.52116304 15.55296014 -4.52116304 15.55296014 -1 13 C-1 12.01 -1 11.02 -1 10 C-3.29629994 8.85185003 -5.07698086 8.69230191 -7.625 8.4375 C-8.44226563 8.35371094 -9.25953125 8.26992187 -10.1015625 8.18359375 C-10.72804687 8.12300781 -11.35453125 8.06242187 -12 8 C-10.62963573 5.14752501 -9.44627723 3.05487288 -7 1 C-4 0 -4 0 0 0 Z " fill="#E9DED7" transform="translate(247,114)"/>
<path d="M0 0 C0.33 0 0.66 0 1 0 C1.07347656 1.24716797 1.07347656 1.24716797 1.1484375 2.51953125 C1.22320312 3.60621094 1.29796875 4.69289063 1.375 5.8125 C1.44460937 6.89144531 1.51421875 7.97039062 1.5859375 9.08203125 C1.81195733 12.18626186 1.81195733 12.18626186 4 15 C7.96347905 9.99350015 9.79022851 6.2688159 11 0 C11.66 0 12.32 0 13 0 C13.33 5.94 13.66 11.88 14 18 C13.34 17.67 12.68 17.34 12 17 C11.375 13.9375 11.375 13.9375 11 11 C10.2575 11.969375 9.515 12.93875 8.75 13.9375 C7.02690085 16.02387361 6.26131306 16.90112479 3.6875 17.875 C3.130625 17.91625 2.57375 17.9575 2 18 C-1.11647527 12.93572769 -1.5729774 8.78486795 -1 3 C-0.67 2.01 -0.34 1.02 0 0 Z " fill="#ECE4DE" transform="translate(121,119)"/>
<path d="M0 0 C0.99 0 1.98 0 3 0 C5.43865031 7.07208589 5.43865031 7.07208589 3.375 11.4375 C1 14 1 14 -1.1875 14.9375 C-1.785625 14.958125 -2.38375 14.97875 -3 15 C-3.33 14.67 -3.66 14.34 -4 14 C-3.95726897 8.82954506 -3.41462661 4.07128557 0 0 Z " fill="#AD7C49" transform="translate(88,121)"/>
<path d="M0 0 C1.2375 0.1546875 1.2375 0.1546875 2.5 0.3125 C4.5 3.3125 4.5 3.3125 4.1875 6.4375 C3.5 9.3125 3.5 9.3125 2.5 10.3125 C0.0625 10.5625 0.0625 10.5625 -2.5 10.3125 C-4.64915785 7.08876323 -4.88286803 6.04546326 -4.5 2.3125 C-2.5 0.3125 -2.5 0.3125 0 0 Z " fill="#F6F2EF" transform="translate(167.5,40.6875)"/>
<path d="M0 0 C0.66 0 1.32 0 2 0 C2.33 2.97 2.66 5.94 3 9 C3.66 9 4.32 9 5 9 C5.28875 8.05125 5.5775 7.1025 5.875 6.125 C7 3 7 3 9 1 C12.625 1.375 12.625 1.375 16 2 C16 2.33 16 2.66 16 3 C14.3603125 3.309375 14.3603125 3.309375 12.6875 3.625 C8.86356822 4.65288003 8.86356822 4.65288003 7.125 7.6875 C5.95077212 11.14494876 5.362825 14.37174997 5 18 C4.34 18 3.68 18 3 18 C2.49309416 15.93918639 1.99475381 13.87626474 1.5 11.8125 C1.2215625 10.66394531 0.943125 9.51539062 0.65625 8.33203125 C0.08504615 5.43181171 -0.13283779 2.93903615 0 0 Z " fill="#EEE6E1" transform="translate(136,118)"/>
<path d="M0 0 C2.5625 0.1875 2.5625 0.1875 4.5625 2.1875 C4.1875 5.8125 4.1875 5.8125 3.5625 9.1875 C1.9125 9.5175 0.2625 9.8475 -1.4375 10.1875 C-3 8.5 -3 8.5 -4.4375 6.1875 C-3.88975225 0.29921171 -3.88975225 0.29921171 0 0 Z " fill="#F8F6F4" transform="translate(84.4375,42.8125)"/>
<path d="M0 0 C0.66 0.99 1.32 1.98 2 3 C1.30711964 4.97470904 0.60590368 6.94675686 -0.12890625 8.90625 C-2.04959038 15.7276932 -2.35471082 22.96255211 -3 30 C-3.99 30 -4.98 30 -6 30 C-3.31225296 3.31225296 -3.31225296 3.31225296 0 0 Z " fill="#E6DBD3" transform="translate(80,106)"/>
<path d="M0 0 C0.66 0.33 1.32 0.66 2 1 C2.44539877 9.7595092 2.44539877 9.7595092 -1 14 C-1.66 14 -2.32 14 -3 14 C-2.88512252 12.41590006 -2.75765492 10.83271037 -2.625 9.25 C-2.55539063 8.36828125 -2.48578125 7.4865625 -2.4140625 6.578125 C-2.00149945 4.00933618 -1.28839043 2.24158985 0 0 Z " fill="#AC7945" transform="translate(210,118)"/>
<path d="M0 0 C0.625 2.3125 0.625 2.3125 1 5 C0.01 6.485 0.01 6.485 -1 8 C-1.66 7.67 -2.32 7.34 -3 7 C-2.34 5.02 -1.68 3.04 -1 1 C-2.60540659 1.78914921 -4.20928016 2.58141765 -5.8125 3.375 C-7.15248047 4.03628906 -7.15248047 4.03628906 -8.51953125 4.7109375 C-11.14556381 6.01866905 -11.14556381 6.01866905 -14 8 C-14 7.01 -14 6.02 -14 5 C-12.61217515 4.1533966 -11.21430603 3.32324661 -9.8125 2.5 C-9.03519531 2.0359375 -8.25789062 1.571875 -7.45703125 1.09375 C-4.75896614 -0.10729647 -2.9193018 -0.20741043 0 0 Z " fill="#EAE0DA" transform="translate(181,102)"/>
<path d="M0 0 C0.66 0 1.32 0 2 0 C2.33 5.94 2.66 11.88 3 18 C2.34 17.67 1.68 17.34 1 17 C0.40644386 14.35139573 0.25790731 11.70802678 0 9 C-0.33 9 -0.66 9 -1 9 C-0.67 6.03 -0.34 3.06 0 0 Z " fill="#F3EEEA" transform="translate(132,119)"/>
<path d="M0 0 C0.33 0 0.66 0 1 0 C1 2.31 1 4.62 1 7 C1.433125 6.566875 1.86625 6.13375 2.3125 5.6875 C3.875 4.125 5.4375 2.5625 7 1 C6.6875 3.875 6.6875 3.875 6 7 C3 9 3 9 0.8125 8.625 C0.214375 8.41875 -0.38375 8.2125 -1 8 C-1.04241723 5.66705225 -1.04092937 3.33297433 -1 1 C-0.67 0.67 -0.34 0.34 0 0 Z " fill="#EEE7E2" transform="translate(206,125)"/>
<path d="M0 0 C1.67542976 0.28604898 3.34385343 0.61781233 5 1 C4.84518205 3.70931419 4.51827919 5.46584039 2.59765625 7.4453125 C1.10228292 8.67679642 -0.4462924 9.8429837 -2 11 C-0.50163895 7.88801935 1.19933758 4.9465385 3 2 C1.02 2.99 -0.96 3.98 -3 5 C-1.125 1.125 -1.125 1.125 0 0 Z " fill="#F3EFEB" transform="translate(221,115)"/>
<path d="M0 0 C0.66 0.66 1.32 1.32 2 2 C1.59992578 7.1373167 0.17669914 12.3356447 -2 17 C-2.66 16.67 -3.32 16.34 -4 16 C-2.68 10.72 -1.36 5.44 0 0 Z " fill="#E4D7CE" transform="translate(63,121)"/>
<path d="M0 0 C-0.33 0.99 -0.66 1.98 -1 3 C-1.78375 3.144375 -2.5675 3.28875 -3.375 3.4375 C-5.96421018 3.87798925 -5.96421018 3.87798925 -8 5 C-7.34 5.66 -6.68 6.32 -6 7 C-7.65 7 -9.3 7 -11 7 C-8.96914893 1.64593808 -5.57872788 0 0 0 Z " fill="#F1EBE7" transform="translate(247,114)"/>
<path d="M0 0 C0.33 0 0.66 0 1 0 C1 3.3 1 6.6 1 10 C2.65 9.01 4.3 8.02 6 7 C5.34 8.65 4.68 10.3 4 12 C2.35 12 0.7 12 -1 12 C-0.67 8.04 -0.34 4.08 0 0 Z " fill="#D9C7BA" transform="translate(112,125)"/>
<path d="M0 0 C0.33 0 0.66 0 1 0 C1.33 2.31 1.66 4.62 2 7 C2.99 6.01 3.98 5.02 5 4 C5.66 4.33 6.32 4.66 7 5 C5.68 6.65 4.36 8.3 3 10 C1.68 9.34 0.36 8.68 -1 8 C-0.67 5.36 -0.34 2.72 0 0 Z " fill="#E0D2C7" transform="translate(197,120)"/>
<path d="M0 0 C0.33 0 0.66 0 1 0 C1 1.98 1 3.96 1 6 C0.34 5.67 -0.32 5.34 -1 5 C-2.485 7.475 -2.485 7.475 -4 10 C-4.33 9.01 -4.66 8.02 -5 7 C-2 2 -2 2 0 0 Z " fill="#EEE7E2" transform="translate(196,118)"/>
<path d="M0 0 C0.99 0 1.98 0 3 0 C1.73058503 3.91402949 0.48832306 5.79072873 -3 8 C-2.25 2.25 -2.25 2.25 0 0 Z " fill="#B18354" transform="translate(221,117)"/>
<path d="M0 0 C0 3.90617433 -1.31784596 6.50629545 -3 10 C-3.99 10.495 -3.99 10.495 -5 11 C-4.54663921 6.12637153 -3.2910841 3.60957611 0 0 Z " fill="#EAE0DA" transform="translate(87,121)"/>
<path d="M0 0 C1.41623216 -0.05447047 2.83308191 -0.09300508 4.25 -0.125 C5.03890625 -0.14820312 5.8278125 -0.17140625 6.640625 -0.1953125 C9.20731941 0.0171622 10.7916067 0.71345895 13 2 C12.34 2.66 11.68 3.32 11 4 C10.34 3.67 9.68 3.34 9 3 C7.46331135 2.77532169 5.92031946 2.59203195 4.375 2.4375 C3.55773437 2.35371094 2.74046875 2.26992187 1.8984375 2.18359375 C1.27195313 2.12300781 0.64546875 2.06242187 0 2 C0 1.34 0 0.68 0 0 Z " fill="#E2D5CC" transform="translate(235,120)"/>
<path d="M0 0 C0.66 0 1.32 0 2 0 C2.625 3.375 2.625 3.375 3 7 C2.34 7.66 1.68 8.32 1 9 C0.67 6.03 0.34 3.06 0 0 Z " fill="#E4D8CF" transform="translate(136,118)"/>
<path d="M0 0 C0.66 0.99 1.32 1.98 2 3 C0.625 6.6875 0.625 6.6875 -1 10 C-1.33 10 -1.66 10 -2 10 C-1.85950482 8.52031676 -1.71245174 7.04125484 -1.5625 5.5625 C-1.48128906 4.73878906 -1.40007812 3.91507812 -1.31640625 3.06640625 C-1 1 -1 1 0 0 Z " fill="#ECE4DE" transform="translate(80,106)"/>
</svg>
